#!OML:ASF F:\VICON\USERDATA\INSTALL\rory3\rory3.ASF
:FULLY-SPECIFIED
:DEGREES
111
root -5.6228843273315645 18.04486638137438 -0.6087911485671695 -151.5174503593633 9.311358702003957 -160.96555528615247
lfemur -23.27063060072261 -6.317153228813472 -4.966232113596857
ltibia 29.15943844131253
lfoot 16.692260972697664 -15.197731094683784
ltoes 34.631875541658914
rfemur 1.222414898408287 0.200264841082351 16.052555881229743
rtibia 21.448869339777943
rfoot 22.027532466426216 -25.82774823679999
rtoes 10.91417269126575
lowerback -4.786458443418192 8.152091694451077 0.9034189400006517
upperback -5.361742916801689 6.948687406591578 0.5725377824209875
thorax -2.996199149903224 1.7404950825924455 -0.9353861941571529
lowerneck -13.87596742226481 -1.4562356576474484 -0.10602758261236486
upperneck 12.5813822938225 -4.273592617943004 4.222541104575025
head 8.545916458094508 -0.9764919286281647 0.39316937143863506
lclavicle -6.996335880364897e-15 -4.958265820751537e-15
lhumerus 51.83815344417491 -0.9115532052569044 68.66285257186757
lradius 40.57265208726818
lwrist 32.56891735284919
lhand -9.149318646064733 21.457496906934523
lfingers 7.125020000000003
lthumb -168.19308712885265 237.9868352787394
rclavicle -7.0330274684516975e-15 -5.1671570194915885e-15
rhumerus 58.00655813506072 36.77732303750878 -72.5132759589477
rradius 58.29399120188373
rwrist -54.80989364566328
rhand -33.60362808827756 -5.885829888338797
rfingers 7.125020000000003
rthumb -4.454287010496836 -34.94931179904094
112
root -5.638464697509147 18.040172880928765 -0.5731184792099353 -150.9434156223987 10.125405817395407 -160.43010371771464
lfemur -23.46222937828887 -6.083275360451091 -5.279334021025212
ltibia 28.61512084961314
lfoot 17.33195566749167 -14.735711009289709
ltoes 34.9091757936129
rfemur 1.2431134995447586 0.11022668060303031 16.371482368084614
rtibia 21.360509135879603
rfoot 22.020867638294305 -25.890723107849702
rtoes 10.86420790856329
lowerback -4.827732757720181 8.040169554130742 0.8862860791426251
upperback -5.310682649285767 7.0172192042833315 0.6373928466889114
thorax -3.0042479810673006 1.864588869117866 -0.9180793344720435
lowerneck -13.726487473206198 -1.6611213688876034 -0.3093857752421551
upperneck 12.389003844483343 -4.428372323977969 4.241619579772762
head 8.505855360839158 -1.0096276148105738 0.4470659887498787
lclavicle -6.994569296454113e-15 -4.947155653217981e-15
lhumerus 51.41978644246491 -1.1721558187875303 69.0985435584983
lradius 40.89943248454685
lwrist 31.219452413440223
lhand -8.990739824996675 21.68881985807474
lfingers 7.125020000000003
lthumb -168.36536916903717 230.225404073818
rclavicle -7.032299872575657e-15 -5.166719948607763e-15
rhumerus 57.507396027104775 36.89739701337575 -72.90879207033011
rradius 59.007939796241835
rwrist -56.501877361095765
rhand -32.44597957467826 -6.575642050885353
rfingers 7.125020000000003
rthumb -2.6582638560582588 -35.29317188784897
113
root -5.658014056059447 18.034422219740524 -0.5419113407641292 -150.62028027726737 10.989311209507466 -160.07875455559838
lfemur -23.599046164901512 -5.876917968802884 -5.606036862900959
ltibia 27.993275410305856
lfoot 18.02051354561489 -14.412579824197763
ltoes 35.550424745890425
rfemur 1.311672928328223 -0.020821130459230952 16.63962697570158
rtibia 21.343624342732234
rfoot 22.15651470797897 -25.873288732195164
rtoes 10.729901083558566
lowerback -4.889086256304247 7.880576904987877 0.8452006966723787
upperback -5.259391445617977 7.103775582541682 0.7416635277629426
thorax -3.021423357447424 2.0074325811791547 -0.8536273640099883
lowerneck -13.580746169885705 -1.7945014103988282 -0.49980170726675843
upperneck 12.106843912917732 -4.572056598357076 4.228016731766504
head 8.431295640519838 -1.0387788186546227 0.49950619712162037
lclavicle -6.992234565344837e-15 -4.928650931132525e-15
lhumerus 50.88269495580767 -1.3029496538512113 69.64291174978415
lradius 41.35446658452391
lwrist 29.735484076259485
lhand -8.949862420282402 22.15410442178484
lfingers 7.125020000000003
lthumb -168.59041146021463 223.05521842353167
rclavicle -7.030866848110843e-15 -5.1656908286258504e-15
rhumerus 56.92924469606022 36.97810453535922 -73.23026779769813
rradius 59.59487582558234
rwrist -57.754975470827716
rhand -31.644424534698146 -7.110483801892478
rfingers 7.125020000000003
rthumb -1.5797511119910332 -35.391034254966556
114
root -5.677416781979975 18.028056369113354 -0.5167344216644267 -150.35457058698125 11.8419840847003 -159.77783076625454
lfemur -23.677674323747947 -5.684729712154042 -5.964436799703235
ltibia 27.435087856308158
lfoot 18.932363381320805 -14.137862595182508
ltoes 36.424070482081916
rfemur 1.415886420683945 -0.2019994859269446 16.851891416369394
rtibia 21.349150224765545
rfoot 22.40663160084533 -25.848552619648153
rtoes 10.625610551403158
lowerback -4.912374364533971 7.782843125787731 0.8739201391478523
upperback -5.196666465539826 7.237962478165263 0.8307981933276671
thorax -3.033220427839198 2.1929292691989715 -0.7981734011202444
lowerneck -13.389499497227497 -1.859849432299062 -0.5937669808490451
upperneck 11.823825755651018 -4.63461408757565 4.181438790228722
head 8.35396156886581 -1.0503760029033335 0.52808533887941
lclavicle -6.993488968140889e-15 -4.9156161233998184e-15
lhumerus 50.345585117977436 -1.4068983101003916 70.1244212463375
lradius 41.90954514916005
lwrist 28.19409675713095
lhand -8.815424787417856 22.719025490182567
lfingers 7.125020000000003
lthumb -168.78058136204086 213.44840047464007
rclavicle -7.031323215529838e-15 -5.166018782466471e-15
rhumerus 56.39416845285204 36.76262729609889 -73.54686690129012
rradius 59.93007219400099
rwrist -58.864376707302185
rhand -31.300456401798694 -7.399842985948986
rfingers 7.125020000000003
rthumb -1.2101923146737903 -35.07229026912077
